#N canvas 698 138 522 350 12;
#X msg 107 61 Hola Mundo;
#X obj 107 89 print;
#X obj 108 154 print;
#X obj 110 285 print;
#X msg 108 121 1 2 3 4 5;
#X msg 110 252 1;
#X msg 147 252 2;
#X msg 185 251 3;
#X msg 248 67 2;
#X msg 286 67 3;
#X floatatom 248 125 5 0 0 0 - - -;
#X msg 249 162 2;
#X floatatom 249 220 5 0 0 0 - - -;
#X obj 248 102 * 10;
#X obj 249 197 *;
#X obj 365 112 osc~;
#X msg 365 86 440;
#X obj 365 171 dac~;
#X obj 109 221 print;
#X msg 109 188 1 2 hola 4 5;
#X msg 287 162 3;
#X obj 365 142 *~ 0.6;
#X connect 0 0 1 0;
#X connect 4 0 2 0;
#X connect 5 0 3 0;
#X connect 6 0 3 0;
#X connect 7 0 3 0;
#X connect 8 0 13 0;
#X connect 9 0 13 0;
#X connect 11 0 14 0;
#X connect 13 0 10 0;
#X connect 14 0 12 0;
#X connect 15 0 21 0;
#X connect 16 0 15 0;
#X connect 19 0 18 0;
#X connect 20 0 14 1;
#X connect 21 0 17 0;
#X connect 21 0 17 1;
