#N canvas 667 262 450 300 12;
#X floatatom 149 76 5 0 0 0 numero_entero - -;
#X obj 149 99 print;
#X floatatom 150 131 5 0 0 0 numero_entero_nolim - -;
#X floatatom 150 155 5 0 0 0 - - -;
#X floatatom 150 184 5 0 10 0 numero_entero_lim - -;
#X floatatom 150 208 5 0 0 0 - - -;
#X floatatom 326 75 5 0 0 0 - - -;
#X floatatom 376 102 5 0 0 0 - - -;
#X floatatom 327 132 5 0 0 0 - - num2;
#X floatatom 370 132 5 0 0 0 - num2 -;
#X obj 326 102 s num1;
#X obj 376 77 r num1;
#X floatatom 215 76 5 0 0 0 - - -;
#X floatatom 262 75 5 0 0 0 - - -;
#X floatatom 215 123 10 0 0 0 - - -;
#X obj 215 100 /;
#X floatatom 217 156 5 0 0 0 - - -;
#X floatatom 264 155 5 0 0 0 - - -;
#X floatatom 217 203 10 0 0 0 - - -;
#X obj 217 180 +;
#X connect 0 0 1 0;
#X connect 2 0 3 0;
#X connect 4 0 5 0;
#X connect 6 0 10 0;
#X connect 11 0 7 0;
#X connect 12 0 15 0;
#X connect 13 0 15 1;
#X connect 15 0 14 0;
#X connect 16 0 19 0;
#X connect 17 0 19 1;
#X connect 19 0 18 0;
