#N canvas 645 158 383 201 12;
#X floatatom 143 83 5 0 0 0 - - -;
#X obj 86 116 print;
#X msg 229 54 set 123;
#X msg 143 56 14;
#X msg 183 55 33;
#X floatatom 138 117 5 0 0 0 - - -;
#X connect 0 0 1 0;
#X connect 0 0 5 0;
#X connect 2 0 0 0;
#X connect 3 0 0 0;
#X connect 4 0 0 0;
