#N canvas 72 133 1440 563 12;
#X msg 125 43 Hola Mundo;
#X obj 422 33 bng 15 250 50 0 empty empty empty 17 7 0 10 -4034 -1
-1;
#X obj 125 76 print;
#X obj 422 134 print;
#X msg 372 83 A;
#X msg 422 92 B;
#X msg 477 98 C;
#X text 378 52 1;
#X text 410 63 2;
#X text 472 74 3;
#X obj 575 29 bng 15 250 50 0 empty empty empty 17 7 0 10 -4034 -1
-1;
#X obj 575 132 print;
#X msg 521 86 A;
#X msg 575 88 B;
#X msg 626 88 C;
#X text 531 48 1;
#X text 559 63 3;
#X text 620 62 2;
#X floatatom 120 143 5 0 0 0 numero - -;
#X obj 120 166 print;
#X obj 138 348 vsl 15 128 0 10 0 0 empty empty Vslider_lim_10 0 -9
0 10 -4034 -1 -1 0 1;
#X obj -1 435 hsl 128 15 1.27 127 1 0 empty empty Hslider_log_lim_nat
-2 -8 0 10 -4034 -1 -1 0 1;
#X msg 231 177 Hola Mundo;
#X obj 231 200 print;
#X obj 231 156 bng 15 250 50 0 empty empty empty 17 7 0 10 -4034 -1
-1;
#X obj 379 201 tgl 15 0 empty empty empty 17 7 0 10 -257985 -1 -1 0
1;
#X floatatom 379 222 5 0 1 0 - - -;
#X obj 260 40 bng 15 250 50 0 empty empty empty 17 7 0 10 -4034 -1
-1;
#X obj 260 61 print;
#X obj 232 230 bng 15 250 50 0 empty empty empty 17 7 0 10 -4034 -1
-1;
#X floatatom 232 250 5 0 127 0 - - -;
#X obj 232 272 print;
#X obj 231 41 bng 15 250 50 0 empty empty empty 17 7 0 10 -4034 -1
-1;
#X obj 231 61 bng 15 250 50 0 empty empty empty 17 7 0 10 -257985 -1
-1;
#X obj 487 202 tgl 15 0 empty empty empty 17 7 0 10 -257985 -1 -1 0
1;
#X msg 467 166 1;
#X msg 504 166 2;
#X msg 541 166 0;
#X obj 430 201 tgl 15 0 empty empty empty 17 7 0 10 -257985 -1 -1 0
1;
#X floatatom 430 222 5 0 0 0 - - -;
#X obj 430 179 bng 15 250 50 0 empty empty empty 17 7 0 10 -4034 -1
-1;
#X floatatom 118 213 5 0 0 0 numero_entero_nolim - -;
#X floatatom 118 237 5 0 0 0 - - -;
#X floatatom 118 266 5 0 10 0 numero_entero_lim - -;
#X floatatom 118 290 5 0 0 0 - - -;
#X text 18 45 mensaje;
#X text 4 76 objeto (control);
#X floatatom -4 457 5 0 0 0 - - -;
#X floatatom 138 487 5 0 0 0 - - -;
#X floatatom 255 361 5 0 0 0 - - -;
#X floatatom 314 389 5 0 0 0 - - -;
#X floatatom 256 431 5 0 0 0 - - num2;
#X floatatom 310 431 5 0 0 0 - num2 -;
#X obj 255 388 s num1;
#X obj 314 362 r num1;
#X obj -1 377 hsl 128 15 0 127 0 0 empty empty Hslider_lin_lim_nat
-2 -8 0 10 -4034 -1 -1 0 1;
#X floatatom -4 399 5 0 0 0 - - -;
#X obj 525 363 vradio 15 1 0 8 empty empty empty 0 -8 0 10 -4034 -1
-1 0;
#X obj 525 329 hradio 15 1 0 8 empty empty empty 0 -8 0 10 -257985
-1 -1 0;
#X floatatom 546 350 5 0 0 0 - - -;
#X floatatom 525 488 5 0 0 0 - - -;
#X floatatom 487 222 5 0 0 0 - - -;
#X obj 487 244 print;
#X msg 581 166 m;
#X obj 428 364 nbx 5 14 1 1e+37 1 0 empty empty empty 0 -8 0 10 -262144
-1 -1 1 256;
#X obj 922 459 zexy;
#X msg 922 433 help;
#X obj 684 24 bng 15 250 50 0 empty empty empty 17 7 0 10 -4034 -1
-1;
#X obj 737 135 print;
#X msg 683 89 A;
#X msg 737 91 B;
#X msg 788 91 C;
#X obj 684 50 trigger bang bang bang;
#X obj 904 25 bng 15 250 50 0 empty empty empty 17 7 0 10 -4034 -1
-1;
#X obj 922 132 print;
#X msg 868 86 A;
#X msg 921 81 B;
#X msg 972 81 C;
#X obj 904 51 t b b b;
#X floatatom 736 292 5 0 0 0 - - -;
#X floatatom 782 291 5 0 0 0 - - -;
#X floatatom 758 353 5 0 0 0 - - -;
#X obj 758 330 +;
#X obj 756 268 bng 15 250 50 0 empty empty empty 17 7 0 10 -4034 -1
-1;
#X msg 782 268 set 0;
#X msg 1088 138 1 2 3 4 5 6 7;
#X obj 1088 114 bng 15 250 50 0 empty empty empty 17 7 0 10 -4034 -1
-1;
#X obj 1048 181 print;
#X floatatom 1007 182 5 0 0 0 - - -;
#X obj 1088 230 length;
#X floatatom 1088 253 5 0 0 0 - - -;
#X obj 1265 203 niagara 5;
#X floatatom 1249 255 5 0 0 0 - - -;
#X floatatom 1344 255 5 0 0 0 - - -;
#X obj 1265 226 print;
#X obj 1326 226 print;
#X obj 1147 188 minmax;
#X floatatom 1147 211 5 0 0 0 - - -;
#X floatatom 1193 211 5 0 0 0 - - -;
#X obj 1249 148 zexy/mean;
#X floatatom 1249 171 5 0 0 0 - - -;
#X connect 0 0 2 0;
#X connect 1 0 4 0;
#X connect 1 0 5 0;
#X connect 1 0 6 0;
#X connect 4 0 3 0;
#X connect 5 0 3 0;
#X connect 6 0 3 0;
#X connect 10 0 12 0;
#X connect 10 0 14 0;
#X connect 10 0 13 0;
#X connect 12 0 11 0;
#X connect 13 0 11 0;
#X connect 14 0 11 0;
#X connect 18 0 19 0;
#X connect 20 0 48 0;
#X connect 21 0 47 0;
#X connect 22 0 23 0;
#X connect 24 0 22 0;
#X connect 25 0 26 0;
#X connect 27 0 28 0;
#X connect 29 0 30 0;
#X connect 30 0 31 0;
#X connect 32 0 33 0;
#X connect 34 0 61 0;
#X connect 35 0 34 0;
#X connect 36 0 34 0;
#X connect 37 0 34 0;
#X connect 38 0 39 0;
#X connect 40 0 38 0;
#X connect 41 0 42 0;
#X connect 43 0 44 0;
#X connect 49 0 53 0;
#X connect 54 0 50 0;
#X connect 55 0 56 0;
#X connect 57 0 60 0;
#X connect 58 0 59 0;
#X connect 58 0 57 0;
#X connect 61 0 62 0;
#X connect 63 0 34 0;
#X connect 66 0 65 0;
#X connect 67 0 72 0;
#X connect 69 0 68 0;
#X connect 70 0 68 0;
#X connect 71 0 68 0;
#X connect 72 0 71 0;
#X connect 72 1 70 0;
#X connect 72 2 69 0;
#X connect 73 0 78 0;
#X connect 75 0 74 0;
#X connect 78 0 75 0;
#X connect 78 1 76 0;
#X connect 78 2 77 0;
#X connect 79 0 82 0;
#X connect 80 0 82 1;
#X connect 82 0 81 0;
#X connect 83 0 80 0;
#X connect 84 0 80 0;
#X connect 85 0 87 0;
#X connect 85 0 88 0;
#X connect 85 0 89 0;
#X connect 85 0 91 0;
#X connect 85 0 96 0;
#X connect 85 0 99 0;
#X connect 86 0 85 0;
#X connect 89 0 90 0;
#X connect 91 0 92 0;
#X connect 91 0 94 0;
#X connect 91 1 93 0;
#X connect 91 1 95 0;
#X connect 96 0 97 0;
#X connect 96 1 98 0;
#X connect 99 0 100 0;
